<?xml version="1.0" encoding="iso-8859-1"?>
<!-- Uploaded to: SVG Repo, www.svgrepo.com, Generator: SVG Repo Mixer Tools -->
<svg version="1.1" id="Layer_1" xmlns="http://www.w3.org/2000/svg" xmlns:xlink="http://www.w3.org/1999/xlink" 
	 viewBox="0 0 512 512" xml:space="preserve">
<polyline style="fill:#D4E4AC;" points="225.112,279.987 505.718,279.987 505.718,6.71 8.376,6.71 8.376,279.987 104.703,279.987 
	"/>
<polyline style="fill:#FFFFFF;" points="192.654,246.481 473.26,246.481 473.26,39.169 40.834,39.169 40.834,246.481 
	104.703,246.481 "/>
<path style="fill:#F2BF7E;" d="M152.745,143.067c0-57.542,46.646-104.188,104.188-104.188s104.188,46.646,104.188,104.188
	s-46.646,104.188-104.188,104.188c-33.365,0-63.066-15.682-82.136-40.079"/>
<g>
	<path style="fill:#D4E4AC;" d="M181.859,70.58H96.643c0,15.706-8.692,24.4-24.398,24.4v96.174c15.706,0,24.398,8.211,24.398,23.916
		h24.813v-88.033c11.517,0,22.957,3.521,31.979,9.798C154.911,111.228,165.176,86.285,181.859,70.58z"/>
	<path style="fill:#D4E4AC;" d="M417.223,70.58h-85.216c17.995,15.706,29.115,44.224,29.115,72.245s-11.12,56.54-29.115,72.245
		h85.216c0-15.706,9.967-23.916,24.625-23.916V94.98C427.19,94.98,417.223,86.285,417.223,70.58z"/>
</g>
<path style="fill:#F2BF7E;" d="M256.933,38.879c-57.542,0-104.188,46.646-104.188,104.188l22.053,64.109
	c19.07,24.397,48.771,40.079,82.136,40.079c57.542,0,104.188-46.646,104.188-104.188S314.475,38.879,256.933,38.879z
	 M256.933,223.212c-44.262,0-80.145-35.882-80.145-80.145s35.882-80.145,80.145-80.145s80.145,35.881,80.145,80.145
	C337.078,187.329,301.196,223.212,256.933,223.212z"/>
<circle style="fill:#FFFFFF;" cx="256.932" cy="143.067" r="80.151"/>
<path style="fill:#F2BF7E;" d="M121.456,343.43l24.082,40.072v23.176H321.44V279.987H216.861l-4.447,7.31
	c-5.553-8.014-15.776-16.734-27.611-16.734h-7.854v-87.424c0-30.984-24.082-56.101-55.493-56.101V343.43z"/>
<rect x="120.692" y="407.548" style="fill:#E2804F;" width="240.431" height="96.17"/>
<path style="fill:#FFFFFF;" d="M144.731,166.948v40.235h-24.043v-64.116h0.163C134.038,143.067,144.731,153.758,144.731,166.948z"/>
<rect x="312.016" y="295.693" width="15.706" height="95.28"/>
<rect x="320.393" y="464.266" style="fill:#FFFFFF;" width="15.706" height="15.706"/>
<polygon points="512,288.363 225.112,288.363 225.112,272.657 496.294,272.657 496.294,16.134 15.706,16.134 15.706,272.657 
	104.703,272.657 104.703,288.363 0,288.363 0,0.428 512,0.428 "/>
<path d="M192.654,255.905h287.935V31.839H31.411v224.065h73.292v-15.706H47.117V47.545h152.811
	c-8.206,4.861-15.73,10.458-22.409,16.753H88.998v7.853c0,7.778-2.275,15.182-17.276,15.182h-7.853v112.033h7.853
	c11.486,0,17.276,5.068,17.276,16.229v7.853h23.836v122.158l24.044,40.072v14.016h-24.044v111.88h256.141v-111.88H152.583v-18.365
	l-24.044-40.072V216.117h23.281v-49.211h-15.706v33.505h-7.575v-64.883c22.883,3.76,40.396,23.678,40.396,47.61v96.012h15.867
	c13.347,0,24.205,10.859,24.205,24.205v32.058h15.706v-32.058c0-22.008-17.904-39.911-39.911-39.911h-0.161v-33.73
	c4.588,3.891,9.441,7.408,14.544,10.484h-6.53V255.905z M353.268,495.866H128.539v-80.469h224.73v80.469H353.268z M464.883,47.545
	v192.654h-150.41c7.821-4.704,15.017-10.346,21.448-16.753h89.174v-7.853c0-10.698,5.379-16.229,15.182-16.229h7.853V87.332h-7.853
	c-13.627,0-15.182-8.752-15.182-15.182v-7.853h-89.543c-6.507-6.421-13.784-12.063-21.692-16.753
	C313.86,47.545,464.883,47.545,464.883,47.545z M349.061,207.741c12.545-18.104,19.914-40.053,19.914-63.688
	c0-23.794-7.469-45.877-20.168-64.05h61.314c2.388,11.835,10.37,19.742,22.305,22.097v82.047
	c-11.71,2.64-19.901,11.29-22.316,23.595H349.061z M145.996,124.418c-7.767-3.361-16.323-5.233-25.311-5.233h-7.853v88.556h-9.051
	c-2.459-12.842-11.149-21.372-24.207-23.758v-81.741c13.316-2.121,21.768-9.897,24.196-22.239h59.955
	C154.53,92.815,148.314,107.678,145.996,124.418z M184.641,207.786v-14.631c15.906,22.886,42.371,37.909,72.293,37.909
	c48.522,0,87.997-39.475,87.997-87.998s-39.475-87.998-87.997-87.998c-47.924,0-86.996,38.515-87.953,86.215
	c-2.397-2.761-5.015-5.323-7.845-7.64c5.103-48.534,46.118-85.986,95.798-85.986c28.52,0,54.181,12.497,71.835,32.288v0.058h0.05
	c15.198,17.065,24.449,39.538,24.449,64.11c0,24.372-9.115,46.644-24.093,63.628h-0.406v0.455
	c-16.216,18.157-39.177,30.168-64.92,32.003h-13.798C224.742,238.423,201.443,226.889,184.641,207.786z M184.641,143.067
	c0-39.862,32.431-72.293,72.293-72.293s72.291,32.431,72.291,72.293s-32.43,72.293-72.291,72.293S184.641,182.928,184.641,143.067z"
	/>
<path style="fill:#E2804F;" d="M250.273,190.619v-11.944c-8.421-0.376-16.592-2.637-21.374-5.401l3.772-14.714
	c5.283,2.896,12.703,5.534,20.874,5.534c7.162,0,12.069-2.763,12.069-7.795c0-4.774-4.023-7.788-13.329-10.934
	c-13.454-4.524-22.626-10.809-22.626-23.011c0-11.059,7.795-19.731,21.241-22.376V88.035h12.319v11.067
	c8.43,0.376,14.088,2.137,18.236,4.148l-3.647,14.205c-3.272-1.385-9.056-4.273-18.103-4.273c-8.171,0-10.817,3.522-10.817,7.036
	c0,4.156,4.406,6.793,15.09,10.817c14.957,5.275,20.991,12.194,20.991,23.504c0,11.192-7.921,20.748-22.376,23.261v12.82h-12.32
	V190.619z"/>
<rect x="441.849" y="55.922" width="15.706" height="15.706"/>
<rect x="441.849" y="216.118" width="15.706" height="15.706"/>
<rect x="56.54" y="55.922" width="15.706" height="15.706"/>
<rect x="56.54" y="216.118" width="15.706" height="15.706"/>
</svg>