<?xml version="1.0" encoding="utf-8"?>
<!-- Uploaded to: SVG Repo, www.svgrepo.com, Generator: SVG Repo Mixer Tools -->
<svg width="800px" height="800px" viewBox="0 -63.02 301.63 301.63" xmlns="http://www.w3.org/2000/svg"><defs><style>.a{fill:#88c5e9;}.b{fill:#ffffff;}.c{fill:#3d8dcc;}.d{fill:#211715;}.e{fill:#cae5f5;}.f{fill:#d9d9d9;}.g{fill:#645d5c;}.h{fill:#f3736f;}</style></defs><path class="a" d="M244.869,2.422H10.4a8,8,0,0,0-8,8V138.98a12,12,0,0,0,12,12H240.869a12,12,0,0,0,12-12V10.422A8,8,0,0,0,244.869,2.422Z"/><rect class="b" x="2.399" y="27.709" width="250.473" height="42.176"/><path class="c" d="M5.746,3.917A7.989,7.989,0,0,0,2.4,10.422v2.79H252.869v-2.79a8,8,0,0,0-8-8H10.4A7.964,7.964,0,0,0,5.746,3.917Z"/><path class="d" d="M244.869.022H13.765C11.577.022,9.2-.166,7.112.558A10.605,10.605,0,0,0,0,10.673C0,11.734,0,12.8,0,13.856V125.237c0,3.164-.009,6.328,0,9.492A18.639,18.639,0,0,0,18.431,153.38c1.632.013,3.265,0,4.9,0H232.951c1.815,0,3.679.1,5.489-.077a18.526,18.526,0,0,0,15.077-10.5,20.206,20.206,0,0,0,1.752-8.508V12.784c0-.771.012-1.543,0-2.314A10.557,10.557,0,0,0,244.869.022c-3.09-.066-3.089,4.734,0,4.8a5.7,5.7,0,0,1,5.6,5.918c0,1.084,0,2.168,0,3.251v110.6q0,4.992,0,9.983A13.784,13.784,0,0,1,236.8,148.58c-1.741.013-3.482,0-5.223,0H22.889c-1.493,0-2.986.013-4.479,0a13.786,13.786,0,0,1-12.37-7.9A14.86,14.86,0,0,1,4.8,134.205V13.134c0-.872-.012-1.745,0-2.616a5.672,5.672,0,0,1,5.635-5.7c1.536-.025,3.074,0,4.61,0h229.82C247.958,4.822,247.963.022,244.869.022Z"/><path class="d" d="M22.545,132.232h46.42c3.089,0,3.094-4.8,0-4.8H22.545c-3.088,0-3.093,4.8,0,4.8Z"/><path class="e" d="M144.8,43.791a4.216,4.216,0,0,0-3.673,2.615,9.68,9.68,0,0,0-.44,4.042,6.374,6.374,0,0,0,.892,2.771,3.7,3.7,0,0,0,3.22,1.821,3.533,3.533,0,0,0,3.221-1.821,6.374,6.374,0,0,0,.892-2.771,9.68,9.68,0,0,0-.44-4.042A4.082,4.082,0,0,0,144.8,43.791Z"/><path class="e" d="M131.785,43.791a4.215,4.215,0,0,0-3.672,2.615,9.68,9.68,0,0,0-.44,4.042,6.374,6.374,0,0,0,.892,2.771,3.7,3.7,0,0,0,3.22,1.821,3.533,3.533,0,0,0,3.221-1.821,6.374,6.374,0,0,0,.892-2.771,9.68,9.68,0,0,0-.44-4.042A4.082,4.082,0,0,0,131.785,43.791Z"/><path class="e" d="M118.775,43.791a4.215,4.215,0,0,0-3.672,2.615,9.68,9.68,0,0,0-.44,4.042,6.374,6.374,0,0,0,.892,2.771,3.7,3.7,0,0,0,3.22,1.821A3.533,3.533,0,0,0,122,53.219a6.374,6.374,0,0,0,.892-2.771,9.68,9.68,0,0,0-.44-4.042A4.082,4.082,0,0,0,118.775,43.791Z"/><path class="e" d="M105.572,43.985A4.216,4.216,0,0,0,101.9,46.6a9.68,9.68,0,0,0-.44,4.042,6.388,6.388,0,0,0,.892,2.771,3.706,3.706,0,0,0,3.221,1.821,3.534,3.534,0,0,0,3.22-1.821,6.361,6.361,0,0,0,.892-2.771,9.68,9.68,0,0,0-.44-4.042A4.079,4.079,0,0,0,105.572,43.985Z"/><path class="e" d="M92.562,43.985A4.216,4.216,0,0,0,88.889,46.6a9.68,9.68,0,0,0-.44,4.042,6.388,6.388,0,0,0,.892,2.771,3.705,3.705,0,0,0,3.22,1.821,3.534,3.534,0,0,0,3.221-1.821,6.361,6.361,0,0,0,.892-2.771,9.68,9.68,0,0,0-.44-4.042A4.079,4.079,0,0,0,92.562,43.985Z"/><path class="e" d="M79.552,43.985A4.216,4.216,0,0,0,75.879,46.6a9.68,9.68,0,0,0-.44,4.042,6.388,6.388,0,0,0,.892,2.771,3.705,3.705,0,0,0,3.22,1.821,3.534,3.534,0,0,0,3.221-1.821,6.361,6.361,0,0,0,.892-2.771,9.68,9.68,0,0,0-.44-4.042A4.079,4.079,0,0,0,79.552,43.985Z"/><path class="e" d="M66.542,43.985A4.216,4.216,0,0,0,62.869,46.6a9.68,9.68,0,0,0-.44,4.042,6.388,6.388,0,0,0,.892,2.771,3.705,3.705,0,0,0,3.22,1.821,3.534,3.534,0,0,0,3.221-1.821,6.374,6.374,0,0,0,.892-2.771,9.68,9.68,0,0,0-.44-4.042A4.079,4.079,0,0,0,66.542,43.985Z"/><path class="e" d="M45.562,43.985A4.216,4.216,0,0,0,41.889,46.6a9.68,9.68,0,0,0-.44,4.042,6.388,6.388,0,0,0,.892,2.771,3.705,3.705,0,0,0,3.22,1.821,3.534,3.534,0,0,0,3.221-1.821,6.361,6.361,0,0,0,.892-2.771,9.68,9.68,0,0,0-.44-4.042A4.079,4.079,0,0,0,45.562,43.985Z"/><path class="e" d="M32.552,43.985A4.216,4.216,0,0,0,28.879,46.6a9.68,9.68,0,0,0-.44,4.042,6.388,6.388,0,0,0,.892,2.771,3.705,3.705,0,0,0,3.22,1.821,3.534,3.534,0,0,0,3.221-1.821,6.361,6.361,0,0,0,.892-2.771,9.68,9.68,0,0,0-.44-4.042A4.079,4.079,0,0,0,32.552,43.985Z"/><path class="e" d="M19.542,43.985A4.216,4.216,0,0,0,15.869,46.6a9.68,9.68,0,0,0-.44,4.042,6.388,6.388,0,0,0,.892,2.771,3.705,3.705,0,0,0,3.22,1.821,3.534,3.534,0,0,0,3.221-1.821,6.374,6.374,0,0,0,.892-2.771,9.68,9.68,0,0,0-.44-4.042A4.079,4.079,0,0,0,19.542,43.985Z"/><path class="f" d="M222.263,43.862a4.681,4.681,0,0,0-4.017,2.294,6.927,6.927,0,0,0-.482,3.546,4.873,4.873,0,0,0,.976,2.432,4.332,4.332,0,0,0,3.523,1.6,4.113,4.113,0,0,0,3.524-1.6,4.873,4.873,0,0,0,.976-2.432,6.927,6.927,0,0,0-.482-3.546A4.521,4.521,0,0,0,222.263,43.862Z"/><path class="f" d="M204.152,43.862a4.681,4.681,0,0,0-4.017,2.294,6.927,6.927,0,0,0-.482,3.546,4.873,4.873,0,0,0,.976,2.432,4.332,4.332,0,0,0,3.523,1.6,4.109,4.109,0,0,0,3.523-1.6,4.855,4.855,0,0,0,.976-2.432,6.915,6.915,0,0,0-.481-3.546A4.521,4.521,0,0,0,204.152,43.862Z"/><path class="f" d="M186.041,43.862a4.681,4.681,0,0,0-4.017,2.294,6.916,6.916,0,0,0-.482,3.546,4.873,4.873,0,0,0,.976,2.432,4.332,4.332,0,0,0,3.523,1.6,4.109,4.109,0,0,0,3.523-1.6,4.864,4.864,0,0,0,.976-2.432,6.915,6.915,0,0,0-.481-3.546A4.521,4.521,0,0,0,186.041,43.862Z"/><path class="d" d="M2.4,72.286H240.946c3.088,0,3.093-4.8,0-4.8H2.4c-3.089,0-3.094,4.8,0,4.8Z"/><path class="g" d="M230.789,168.206c24.312-24.385,47.547-47.359,64.788-65.148,10.194-12.621-2.348-27.868-14.82-28.632-4.4-.269-7.837.7-10.54,2.99-9.635,8.145-56.094,48.486-70,60.649"/><path class="d" d="M232.486,169.9c15.726-15.773,31.534-31.464,47.223-47.273q5-5.04,9.979-10.1,2.4-2.44,4.787-4.892a31.921,31.921,0,0,0,4.546-5.291c4.684-7.547,2.719-16.732-3.162-22.985-5.816-6.184-15.475-9.491-23.574-6a25.078,25.078,0,0,0-6.137,4.379q-2.5,2.136-5,4.279-15.37,13.193-30.668,26.47-14.6,12.651-29.13,25.382-1.136,1-2.267,2c-2.316,2.054,1.089,5.438,3.394,3.394,8.668-7.686,17.429-15.268,26.179-22.86q15.573-13.512,31.2-26.965,5.2-4.475,10.416-8.93a13.47,13.47,0,0,1,6.66-3.559,16.51,16.51,0,0,1,10.705,2.026C293.59,82.308,298.4,89.21,296.5,96.244c-1.124,4.164-4.345,6.9-7.25,9.873q-4.695,4.8-9.42,9.572c-14.857,15.015-29.845,29.9-44.773,44.842q-2.983,2.988-5.965,5.978c-2.184,2.19,1.209,5.585,3.394,3.394Z"/><path class="h" d="M216.883,173.145c9.66.628,18.263-4.9,17.652-17.121-.639-12.772-11.422-21.179-20.963-22.341-9.606-1.17-18,4.9-17.356,17.673C196.839,163.809,208.456,172.6,216.883,173.145Z"/><path class="d" d="M216.883,175.545a20.781,20.781,0,0,0,12.106-2.762,16.642,16.642,0,0,0,7.336-10.143c2.449-9.788-1.986-20.038-9.814-26.028-6.659-5.1-16.328-7.536-24.032-3.292-8.336,4.594-10.34,15.72-7.544,24.195,3.055,9.262,12.02,17.292,21.948,18.03a2.421,2.421,0,0,0,2.4-2.4,2.446,2.446,0,0,0-2.4-2.4,9.331,9.331,0,0,1-1.894-.3,19.556,19.556,0,0,1-2.368-.727,22.509,22.509,0,0,1-4.444-2.384,23.059,23.059,0,0,1-7.388-8.231c-3.355-6.334-3.306-15.836,2.473-20.561a12.938,12.938,0,0,1,8.378-2.593,20.355,20.355,0,0,1,9.664,2.924,21.426,21.426,0,0,1,10.817,19.774,12.728,12.728,0,0,1-4.637,9.376c-3.068,2.3-6.793,2.947-10.6,2.725C213.8,170.564,213.807,175.365,216.883,175.545Z"/></svg>